# xmcd
#
# Track frame offsets: 
#        150
#        13647
#        29247
#        43072
#        53662
#        71750
#        89087
#        111025
#        123425
#        150297
#        168375
#        199620
#        220535
#        230565
#        254962
#        266065
#        288032
#        314560
#
# Disc length: 4583 seconds
#
# Revision: 4
# Processed by: cddbd v1.5.1PL0 Copyright (c) Steve Scherf et al.
# Submitted via: ExactAudioCopy v0.95a5
#
DISCID=0a11e512
DTITLE=Various Artist - Time Life Music:  Classic Jazz - Jazz Legends - Disc 
DTITLE=1
DYEAR=2002
DGENRE=Jazz
TTITLE0=Louis Armstrong - Canal Street Blues
TTITLE1=Charlie Parker And Dizzy Gillespie - Bloomdido
TTITLE2=Bud Powells's Modernists - Bouncing With Bud
TTITLE3=Chet Baker - My Funny Valentine
TTITLE4=Billie Holiday - God Bless The Child
TTITLE5=Count Basie And His Orchestra - April In Paris
TTITLE6=Oscar Peterson Trio - Night Train
TTITLE7=John Coltrane - My Favorite Things (Part 1)
TTITLE8=Jimmy Smith - Walk On The Wild Side
TTITLE9=Sarah Vaughan - Smoke Gets In Your Eyes
TTITLE10=Bill Evans Trio - Waltz For Debby
TTITLE11=Duke Ellington And His Orchestra - Take The "A" Train
TTITLE12=Cannonball Adderley And His Orchestra - African Waltz
TTITLE13=Stan Getz And Astrud Gilberto - The Girl From Ipanema
TTITLE14=Cal Tjader - Soul Sauce (Guarachi Guaro)
TTITLE15=Wes Montgomery - Bumpin' On Sunset
TTITLE16=Ramsey Lewis Trio - The "In" Crowd
TTITLE17=Charles Mingus - Better Get Hit in Yo' Soul
EXTD=YEAR: 2002
EXTT0=
EXTT1=
EXTT2=
EXTT3=
EXTT4=
EXTT5=
EXTT6=
EXTT7=
EXTT8=
EXTT9=
EXTT10=
EXTT11=
EXTT12=
EXTT13=
EXTT14=
EXTT15=
EXTT16=
EXTT17=
PLAYORDER=
